<?xml version="1.0" standalone="no"?>
<!DOCTYPE svg PUBLIC "-//W3C//DTD SVG 20010904//EN"
 "http://www.w3.org/TR/2001/REC-SVG-20010904/DTD/svg10.dtd">
<svg version="1.0" xmlns="http://www.w3.org/2000/svg"
 width="512.000000pt" height="512.000000pt" viewBox="0 0 512.000000 512.000000"
 preserveAspectRatio="xMidYMid meet">

<g transform="translate(0.000000,512.000000) scale(0.100000,-0.100000)"
fill="#000000" stroke="none">
<path d="M2364 4895 c-56 -28 -86 -60 -1045 -1130 -1159 -1292 -1119 -1247
-1176 -1374 -45 -100 -92 -248 -115 -363 -33 -167 -31 -375 5 -512 48 -181
117 -298 257 -437 138 -138 157 -145 1061 -414 1291 -385 1572 -465 1626 -465
66 0 97 23 224 171 259 302 1725 2068 1845 2224 17 22 35 51 39 63 11 38 7
112 -9 177 -21 80 -20 213 3 322 30 145 6 216 -89 266 -46 24 -62 27 -100 22
-104 -15 -148 -62 -196 -210 -25 -76 -27 -90 -26 -273 l1 -193 -66 -87 c-73
-95 -281 -350 -578 -707 -105 -126 -393 -473 -639 -770 -247 -297 -458 -550
-470 -563 l-22 -23 -730 216 c-1044 310 -1211 360 -1382 416 -144 48 -157 54
-212 105 -110 103 -157 209 -167 378 -11 199 31 321 129 370 103 52 102 52
1038 -214 1115 -316 1205 -341 1251 -341 96 -2 93 -4 650 636 284 327 976
1128 1264 1465 405 472 385 445 385 521 0 58 -21 100 -74 146 -40 35 -61 45
-134 62 -262 61 -2180 489 -2340 522 -122 25 -148 24 -208 -6z m890 -470 c86
-22 116 -35 116 -52 0 -7 7 -16 15 -19 22 -9 18 -35 -12 -94 -31 -60 -87 -110
-123 -110 -15 0 -35 -7 -46 -15 -18 -14 -17 -14 14 -15 18 0 53 11 76 25 51
30 99 22 66 -11 -27 -27 6 -41 235 -98 l235 -58 31 26 c40 34 69 34 69 1 0
-14 -8 -30 -18 -36 -12 -8 -17 -20 -14 -39 3 -23 11 -29 54 -38 27 -7 57 -12
66 -12 42 0 92 -21 92 -39 0 -35 -34 -53 -87 -45 -26 3 -61 13 -76 21 -44 22
-169 44 -184 31 -9 -7 -46 -2 -125 17 l-113 28 -60 -24 c-52 -21 -63 -30 -86
-74 -23 -43 -31 -50 -60 -53 -19 -2 -43 -11 -54 -21 -40 -36 -116 -83 -138
-85 -13 -1 -27 -5 -32 -8 -6 -3 -29 -9 -52 -13 -58 -9 -117 22 -175 93 l-28
33 6 -29 c5 -24 -1 -37 -32 -73 -131 -151 -217 -215 -276 -207 -43 7 -55 -16
-60 -112 -4 -62 -14 -110 -37 -175 -18 -49 -32 -100 -32 -113 1 -12 -10 -40
-23 -61 -30 -47 -209 -231 -225 -231 -6 0 -11 -6 -11 -14 0 -18 -78 -106 -95
-106 -7 0 -34 -24 -59 -52 -40 -46 -46 -58 -46 -98 0 -40 4 -49 30 -68 38 -29
39 -60 1 -96 -25 -24 -35 -28 -63 -22 -72 14 -178 50 -196 66 -10 9 -36 20
-57 24 -84 16 -86 48 -5 115 33 27 65 53 73 58 24 15 97 109 97 125 0 9 7 21
15 28 8 7 15 17 15 22 0 27 115 160 183 211 43 32 46 48 15 62 -22 10 -23 15
-20 106 2 79 -1 98 -13 103 -8 3 -15 14 -15 25 0 19 -4 18 -61 -12 -33 -17
-91 -55 -127 -84 -37 -29 -80 -59 -97 -67 -66 -32 -144 -66 -154 -66 -5 0 -29
-18 -53 -41 -52 -49 -256 -187 -301 -203 -68 -25 -116 -57 -156 -104 -22 -28
-41 -54 -41 -59 0 -5 -16 -24 -35 -43 l-35 -34 -63 13 c-70 14 -109 30 -114
47 -6 18 109 142 175 191 31 23 71 62 88 85 17 24 53 57 80 75 27 17 76 53
110 78 54 42 182 115 257 148 15 6 29 19 32 27 5 15 85 95 173 172 23 20 42
42 42 48 0 21 112 140 133 140 16 0 65 51 105 111 17 26 45 58 62 73 18 14 27
26 21 26 -28 0 -2 35 100 134 l110 109 55 -7 c30 -3 54 -2 54 3 0 16 91 111
151 157 94 72 252 135 301 120 53 -17 76 -14 86 8 16 37 141 124 202 142 30 9
60 18 65 19 6 2 12 4 14 4 2 1 31 -6 65 -14z"/>
</g>
</svg>
